<svg xmlns="http://www.w3.org/2000/svg" width="17.043" height="21.199" viewBox="0 0 17.043 21.199">
  <g id="Group_4483" data-name="Group 4483" transform="translate(-320.446 45.696) rotate(-90)">
    <g id="up-arrow" transform="translate(25 336.989) rotate(-90)">
      <g id="Group_3723" data-name="Group 3723" transform="translate(0)">
        <path id="Path_3194" data-name="Path 3194" d="M128.36,7.7,120.787.124a.436.436,0,0,0-.137-.092.417.417,0,0,0-.321,0,.4.4,0,0,0-.137.092L112.617,7.7a.421.421,0,0,0,.595.595l6.856-6.855V19.775a.421.421,0,1,0,.842,0V1.437l6.855,6.855a.421.421,0,1,0,.6-.595Z" transform="translate(-112.494 0)" fill="#ff6c0e" stroke="#ff6c0e" stroke-width="1"/>
      </g>
    </g>
  </g>
</svg>
