<svg xmlns="http://www.w3.org/2000/svg" width="24.259" height="140.642" viewBox="0 0 24.259 140.642">
  <g id="up-arrow" transform="translate(24.259 140.642) rotate(180)">
    <g id="Group_56" data-name="Group 56" transform="translate(0)">
      <path id="Path_74" data-name="Path 74" d="M136.566,11.677,125.076.188a.661.661,0,0,0-.208-.139.633.633,0,0,0-.488,0,.608.608,0,0,0-.208.139L112.681,11.677a.638.638,0,1,0,.9.9l10.4-10.4V140a.638.638,0,1,0,1.277,0V2.18l10.4,10.4a.639.639,0,1,0,.9-.9Z" transform="translate(-112.494 0)" fill="#fff"/>
    </g>
  </g>
</svg>
