<svg id="Layer_1" data-name="Layer 1" xmlns="http://www.w3.org/2000/svg" xmlns:xlink="http://www.w3.org/1999/xlink" viewBox="0 0 20.2 15.98"><defs><style>.cls-1{fill:none;}.cls-2{clip-path:url(#clip-path);}.cls-3{fill:#117a8c;}</style><clipPath id="clip-path" transform="translate(0 -9.95)"><rect class="cls-1" width="20.2" height="35.9"/></clipPath></defs><g class="cls-2"><g id="Mask_Group_3" data-name="Mask Group 3"><g id="up-arrow"><g id="Group_3723" data-name="Group 3723"><path id="Path_3194" data-name="Path 3194" class="cls-3" d="M7.7,10.08.12,17.65a.42.42,0,0,0-.09.14.44.44,0,0,0,0,.32.42.42,0,0,0,.09.14L7.7,25.82a.43.43,0,0,0,.6,0,.42.42,0,0,0,0-.57L1.44,18.37H19.77a.42.42,0,1,0,0-.84H1.44l6.85-6.86a.41.41,0,0,0,0-.59.41.41,0,0,0-.59,0Z" transform="translate(0 -9.95)"/></g></g></g></g></svg>