<svg id="Layer_1" data-name="Layer 1" xmlns="http://www.w3.org/2000/svg" viewBox="0 0 24.33 140.64"><defs><style>.cls-1{fill:#fff;}</style></defs><g id="up-arrow"><g id="Group_56" data-name="Group 56"><path id="Path_74" data-name="Path 74" class="cls-1" d="M.19,129l11.49,11.49a.6.6,0,0,0,.21.14.57.57,0,0,0,.48,0,.6.6,0,0,0,.21-.14L24.07,129a.64.64,0,0,0,.07-.9.64.64,0,0,0-.9-.06l-.07.06-10.4,10.4V.64a.64.64,0,1,0-1.27,0V138.46L1.09,128.06A.62.62,0,0,0,.2,128a.64.64,0,0,0-.09.9L.2,129Z" transform="translate(0.03 0)"/></g></g></svg>