<svg id="Layer_1" data-name="Layer 1" xmlns="http://www.w3.org/2000/svg" xmlns:xlink="http://www.w3.org/1999/xlink" viewBox="0 0 16 20.2"><defs><style>.cls-1{fill:none;}.cls-2{clip-path:url(#clip-path);}.cls-3{fill:#fff;}</style><clipPath id="clip-path" transform="translate(0 0)"><rect class="cls-1" x="-9.95" width="35.9" height="20.2"/></clipPath></defs><g class="cls-2"><g id="Mask_Group_3" data-name="Mask Group 3"><g id="up-arrow"><g id="Group_3723" data-name="Group 3723"><path id="Path_3194" data-name="Path 3194" class="cls-3" d="M.13,12.5,7.7,20.07a.42.42,0,0,0,.14.09.36.36,0,0,0,.32,0,.42.42,0,0,0,.14-.09l7.57-7.57a.44.44,0,0,0,0-.6.42.42,0,0,0-.57,0L8.44,18.76V.42a.42.42,0,0,0-.84,0V18.76L.72,11.9a.42.42,0,0,0-.6,0,.42.42,0,0,0,0,.6Z" transform="translate(0 0)"/></g></g></g></g></svg>