<svg id="Layer_1" data-name="Layer 1" xmlns="http://www.w3.org/2000/svg" viewBox="0 0 21.2 16.98"><defs><style>.cls-1{fill:#ff6c0e;stroke:#ff6c0e;}</style></defs><g id="up-arrow"><g id="Group_3723" data-name="Group 3723"><path id="Path_3194" data-name="Path 3194" class="cls-1" d="M8.2.68.63,8.25a.42.42,0,0,0-.09.14.36.36,0,0,0,0,.32.38.38,0,0,0,.09.13L8.2,16.42a.42.42,0,0,0,.6-.6L1.94,9H20.28a.42.42,0,0,0,0-.84H1.94L8.79,1.27a.41.41,0,0,0,0-.59.43.43,0,0,0-.6,0Z" transform="translate(0 -0.05)"/></g></g></svg>