<svg xmlns="http://www.w3.org/2000/svg" xmlns:xlink="http://www.w3.org/1999/xlink" width="67.11" height="67.11" viewBox="0 0 67.11 67.11">
  <defs>
    <filter id="Path_290" x="0" y="0" width="67.11" height="67.11" filterUnits="userSpaceOnUse">
      <feOffset dy="3" input="SourceAlpha"/>
      <feGaussianBlur stdDeviation="3" result="blur"/>
      <feFlood flood-opacity="0.161"/>
      <feComposite operator="in" in2="blur"/>
      <feComposite in="SourceGraphic"/>
    </filter>
  </defs>
  <g id="Group_4082" data-name="Group 4082" transform="translate(-1739.001 -3140)">
    <g transform="matrix(1, 0, 0, 1, 1739, 3140)" filter="url(#Path_290)">
      <path id="Path_290-2" data-name="Path 290" d="M24.555,0A24.555,24.555,0,1,0,49.11,24.555,24.555,24.555,0,0,0,24.555,0Z" transform="translate(9 6)" fill="#117a8c"/>
    </g>
    <path id="Icon_ionic-ios-arrow-back" data-name="Icon ionic-ios-arrow-back" d="M16.175,12.358,11.509,7.7a.881.881,0,0,1,1.248-1.244l5.286,5.282a.879.879,0,0,1,.026,1.215l-5.308,5.319a.881.881,0,0,1-1.248-1.244Z" transform="translate(1758.063 3158.806)" fill="#fff"/>
  </g>
</svg>
