<svg id="Group_4250" data-name="Group 4250" xmlns="http://www.w3.org/2000/svg" width="34.758" height="36.337" viewBox="0 0 34.758 36.337">
  <path id="Path_3318" data-name="Path 3318" d="M45.758,17.375A17.379,17.379,0,1,0,23.093,33.935a.7.7,0,0,0,.212.032.768.768,0,0,0,.389-.106.724.724,0,0,0,.322-.4L28.4,19.545a2.172,2.172,0,0,0-.022-4.345,2.143,2.143,0,0,0-.931.217l-5.8-5.8a.724.724,0,0,0-1.024,1.024l5.795,5.8a2.131,2.131,0,0,0,.609,2.622L22.851,32.322a15.947,15.947,0,1,1,12-.4L34.4,29.8a.724.724,0,0,0-1.19-.39L28.854,33.3a.724.724,0,0,0,.262,1.231L34.679,36.3a.724.724,0,0,0,.93-.84l-.444-2.088A17.322,17.322,0,0,0,45.758,17.375Zm-17.379-.724a.724.724,0,1,1-.724.724A.724.724,0,0,1,28.379,16.651ZM30.764,33.53l2.48-2.212.684,3.225Z" transform="translate(-11)" fill="#117a8c"/>
  <path id="Path_3319" data-name="Path 3319" d="M245.672,41.482V42.93a.724.724,0,0,0,1.448,0V41.482a.724.724,0,0,0-1.448,0Z" transform="translate(-229.017 -37.865)" fill="#117a8c"/>
  <path id="Path_3320" data-name="Path 3320" d="M52.537,234.617a.724.724,0,1,0,0,1.448h1.448a.724.724,0,0,0,0-1.448Z" transform="translate(-48.916 -217.966)" fill="#117a8c"/>
  <path id="Path_3321" data-name="Path 3321" d="M421.293,236.065a.724.724,0,0,0,0-1.448h-1.448a.724.724,0,0,0,0,1.448Z" transform="translate(-390.156 -217.966)" fill="#117a8c"/>
</svg>
