<svg xmlns="http://www.w3.org/2000/svg" width="30.289" height="30.289" viewBox="0 0 30.289 30.289">
  <path id="Path_3341" data-name="Path 3341" d="M1195.236,562.748a15.145,15.145,0,1,0,15.145,15.145,15.162,15.162,0,0,0-15.145-15.145m-8.817,8.533h17.633a.906.906,0,0,1,.177.017l-8.994,7.789-8.994-7.789a.909.909,0,0,1,.177-.017m-.933,12.29V572.214a.922.922,0,0,1,.011-.146l6.749,5.845-6.742,5.839a.91.91,0,0,1-.018-.181m18.566.933h-17.633a.914.914,0,0,1-.138-.01l6.782-5.873,1.822,1.578a.548.548,0,0,0,.7,0l1.822-1.578,6.782,5.873a.914.914,0,0,1-.138.01m.933-.933a.911.911,0,0,1-.018.181l-6.742-5.839,6.749-5.845a.95.95,0,0,1,.011.146Z" transform="translate(-1180.091 -562.748)" fill="#117a8c"/>
</svg>
