<svg xmlns="http://www.w3.org/2000/svg" width="33.073" height="21.869" viewBox="0 0 33.073 21.869">
  <path id="Path_30" data-name="Path 30" d="M734.486,35.869a1.456,1.456,0,0,1-1.454-1.454V15.454A1.456,1.456,0,0,1,734.486,14H764.65a1.456,1.456,0,0,1,1.454,1.454v18.96a1.456,1.456,0,0,1-1.454,1.454Zm.3-1.227-.023.024-.4.45H764.8l-.433-.455-.017-.017-7.318-9.04a.377.377,0,0,1,.586-.475l7.733,9.553V15.292L751.173,25.925a2.817,2.817,0,0,1-3.211,0L733.786,15.292V34.681l7.733-9.553a.377.377,0,0,1,.586.475Zm14.789-8.968a1.951,1.951,0,0,0,1.147-.352l14.089-10.567H734.325l14.09,10.569a1.95,1.95,0,0,0,1.145.351h.017Z" transform="translate(-733.032 -14)" fill="#117a8c"/>
</svg>
