<svg id="Group_3954" data-name="Group 3954" xmlns="http://www.w3.org/2000/svg" width="45.128" height="55.013" viewBox="0 0 45.128 55.013">
  <g id="Group_3953" data-name="Group 3953" transform="translate(0)">
    <path id="Path_3295" data-name="Path 3295" d="M89.156,40.53a12.142,12.142,0,0,0-4.819-4.32,1.069,1.069,0,0,0-.61-.281,11.24,11.24,0,0,0-4.418-.9H76.085V32.193a12.325,12.325,0,0,0,3.857-6.083h.441A4.3,4.3,0,0,0,83.54,18.9c.068-.057.134-.117.2-.18a3.222,3.222,0,0,0-1.241-5.33A11.86,11.86,0,0,0,73.874,2.9,3.419,3.419,0,0,0,70.713,0h-4.3a3.419,3.419,0,0,0-3.161,2.9,11.86,11.86,0,0,0-8.622,10.485A3.222,3.222,0,0,0,53.589,18.9a4.3,4.3,0,0,0,3.156,7.212h.438a12.351,12.351,0,0,0,3.008,5.279c.27.281.556.549.852.8v2.836H57.819a11.241,11.241,0,0,0-4.418.9,1.069,1.069,0,0,0-.61.281A12.311,12.311,0,0,0,46,47.169v6.769a1.075,1.075,0,0,0,1.074,1.074H90.053a1.075,1.075,0,0,0,1.074-1.074V47.169A12.216,12.216,0,0,0,89.156,40.53ZM52.447,52.864h-4.3V47.169a10.264,10.264,0,0,1,4.3-8.26Zm27.936-28.9h-.049c.032-.357.049-.716.049-1.074V19.663a2.149,2.149,0,0,1,0,4.3ZM63.192,5.172v4.82a1.074,1.074,0,0,0,2.149,0V3.546c0-.666.562-1.4,1.074-1.4h4.3c.512,0,1.074.731,1.074,1.4V9.993a1.074,1.074,0,1,0,2.149,0V5.172a9.713,9.713,0,0,1,6.387,8.044H56.8A9.713,9.713,0,0,1,63.192,5.172ZM56.745,23.961a2.149,2.149,0,0,1,0-4.3v3.223c0,.358.017.717.049,1.074Zm0-6.447H55.67a1.074,1.074,0,0,1,0-2.149H81.458a1.074,1.074,0,0,1,0,2.149H56.745Zm2.344,7.326c0-.012,0-.023-.007-.035a9.91,9.91,0,0,1-.188-1.919V19.663H78.234v3.223a9.914,9.914,0,0,1-.188,1.918c0,.012,0,.023-.007.035a10.178,10.178,0,0,1-3.744,6.043,9.225,9.225,0,0,1-11.463,0,9.957,9.957,0,0,1-1.09-.981A10.189,10.189,0,0,1,59.089,24.84Zm8.4,28.024h-8.6V50.393a1.074,1.074,0,1,0-2.149,0v2.471H54.6v-15.1a9.1,9.1,0,0,1,2.149-.525v6.706a1.074,1.074,0,0,0,2.149,0V37.177h2.763L67.489,43.3Zm-4.3-17.192v-2a11.316,11.316,0,0,0,10.745,0v2l-5.372,5.641ZM82.532,52.864H80.383V50.393a1.074,1.074,0,0,0-2.149,0v2.471h-8.6V43.3l5.833-6.124h2.763v6.769a1.074,1.074,0,0,0,2.149,0V37.24a9.1,9.1,0,0,1,2.149.525Zm6.447,0h-4.3V38.909a10.265,10.265,0,0,1,4.3,8.26Z" transform="translate(-46)" fill="#117a8c"/>
  </g>
</svg>
