<svg xmlns="http://www.w3.org/2000/svg" width="57.854" height="50.371" viewBox="0 0 57.854 50.371">
  <g id="handshake-partnership" transform="translate(1.75 1.75)">
    <g id="Group_3969" data-name="Group 3969" transform="translate(16.013 0)">
      <path id="Path_3305" data-name="Path 3305" d="M228.857,227l-4.386,2.632s-9.117-.288-12.127-.007c-1.815.168-5.9,1.994-7.947,2.952a3.5,3.5,0,0,0-1.733,1.795l-3.411,7.963a4.089,4.089,0,0,0,1.3,2.622c1.318,1.309,4.224.818,5.248,0,1.485-1.2,4.634-6.552,4.634-6.552h7.9" transform="translate(-199.254 -221.737)" fill="none" stroke="#117a8c" stroke-linecap="round" stroke-linejoin="round" stroke-width="2.5"/>
      <path id="Path_3306" data-name="Path 3306" d="M241.772,239.422s-1.436-6.793-8.772-13.159L241.772,221" transform="translate(-203.397 -221)" fill="none" stroke="#117a8c" stroke-linecap="round" stroke-linejoin="round" stroke-width="2.5"/>
      <path id="Path_3307" data-name="Path 3307" d="M237,254.141a23.264,23.264,0,0,0,2.26-4.434l3-1.707" transform="translate(-203.888 -224.315)" fill="none" stroke="#117a8c" stroke-linecap="round" stroke-linejoin="round" stroke-width="2.5"/>
      <path id="Path_3308" data-name="Path 3308" d="M222.632,248l10.573,9.378a3.2,3.2,0,0,1,.255,4.511h0a3.194,3.194,0,0,1-4.506.24L220,255.018" transform="translate(-201.801 -224.315)" fill="none" stroke="#117a8c" stroke-linecap="round" stroke-linejoin="round" stroke-width="2.5"/>
      <path id="Path_3309" data-name="Path 3309" d="M230.044,268.387a3.166,3.166,0,0,1-.481.7h0a3.2,3.2,0,0,1-4.51.242L218,264" transform="translate(-201.555 -226.279)" fill="none" stroke="#117a8c" stroke-linecap="round" stroke-linejoin="round" stroke-width="2.5"/>
      <path id="Path_3310" data-name="Path 3310" d="M222.275,272.754a3.215,3.215,0,0,1-3.7-.414L217,271" transform="translate(-201.433 -227.138)" fill="none" stroke="#117a8c" stroke-linecap="round" stroke-linejoin="round" stroke-width="2.5"/>
    </g>
    <g id="Group_3971" data-name="Group 3971" transform="translate(0 0)">
      <path id="Path_3311" data-name="Path 3311" d="M181,221l10.527,7.9a48.617,48.617,0,0,1,11.4-.877" transform="translate(-181 -221)" fill="none" stroke="#117a8c" stroke-linecap="round" stroke-linejoin="round" stroke-width="2.5"/>
      <path id="Path_3312" data-name="Path 3312" d="M189.772,235S187.1,244.087,181,247.281a38.249,38.249,0,0,1,3.509,3.509" transform="translate(-181 -222.719)" fill="none" stroke="#117a8c" stroke-linecap="round" stroke-linejoin="round" stroke-width="2.5"/>
      <g id="Group_3970" data-name="Group 3970" transform="translate(3.718 28.517)">
        <path id="Path_3313" data-name="Path 3313" d="M193.613,255.026a2.578,2.578,0,0,1,.354.538,2.7,2.7,0,0,1-.675,3.258l-3.164,2.365a2.719,2.719,0,0,1-3.812-.324l-.446-.546a2.716,2.716,0,0,1,.324-3.812l3.16-2.367a2.694,2.694,0,0,1,3.793.327Z" transform="translate(-185.238 -253.508)" fill="none" stroke="#117a8c" stroke-linecap="round" stroke-linejoin="round" stroke-width="2.5"/>
        <path id="Path_3314" data-name="Path 3314" d="M198.891,255.854a2.748,2.748,0,0,1,2.031.973l.477.553a2.761,2.761,0,0,1-.334,3.878l-5.119,4.062a2.746,2.746,0,0,1-3.862-.331l-.475-.57a2.726,2.726,0,0,1-.241-3.174" transform="translate(-185.942 -253.796)" fill="none" stroke="#117a8c" stroke-linecap="round" stroke-linejoin="round" stroke-width="2.5"/>
        <path id="Path_3315" data-name="Path 3315" d="M206.623,259.948a2.793,2.793,0,0,1,.8.649l.482.581a2.788,2.788,0,0,1-.334,3.92l-5.727,4.7a2.784,2.784,0,0,1-3.918-.338l-.484-.581a2.786,2.786,0,0,1,.336-3.918" transform="translate(-186.657 -254.298)" fill="none" stroke="#117a8c" stroke-linecap="round" stroke-linejoin="round" stroke-width="2.5"/>
        <path id="Path_3316" data-name="Path 3316" d="M211.406,268.071a2.645,2.645,0,0,1-.321,3.72l-2.213,1.738a2.63,2.63,0,0,1-3.72-.336l-.461-.536a2.633,2.633,0,0,1,.338-3.721" transform="translate(-187.55 -255.296)" fill="none" stroke="#117a8c" stroke-linecap="round" stroke-linejoin="round" stroke-width="2.5"/>
      </g>
    </g>
  </g>
</svg>
