<svg xmlns="http://www.w3.org/2000/svg" width="49.056" height="54.601" viewBox="0 0 49.056 54.601">
  <g id="Group_3965" data-name="Group 3965" transform="translate(0)">
    <g id="Group_3956" data-name="Group 3956" transform="translate(0 0)">
      <g id="Group_3955" data-name="Group 3955" transform="translate(0 0)">
        <path id="Path_3296" data-name="Path 3296" d="M74.256,9.451A99.465,99.465,0,0,1,51.047.135a1.066,1.066,0,0,0-1.04,0A96.743,96.743,0,0,1,26.8,9.451a1.067,1.067,0,0,0-.8,1.032V22.256a33,33,0,0,0,10.843,24.7C42.148,51.88,48.3,54.6,50.527,54.6s8.378-2.721,13.685-7.642a33,33,0,0,0,10.843-24.7V10.483A1.067,1.067,0,0,0,74.256,9.451ZM62.762,45.4A34.8,34.8,0,0,1,55.089,50.8a13.749,13.749,0,0,1-4.562,1.664A13.746,13.746,0,0,1,45.965,50.8,34.805,34.805,0,0,1,38.292,45.4a30.911,30.911,0,0,1-10.161-23.14V11.3a98.714,98.714,0,0,0,22.4-9.019A101.788,101.788,0,0,0,72.922,11.3V22.256h0A30.911,30.911,0,0,1,62.762,45.4Z" transform="translate(-25.999 0)" fill="#117a8c"/>
      </g>
    </g>
    <g id="Group_3958" data-name="Group 3958" transform="translate(3.732 4.251)">
      <g id="Group_3957" data-name="Group 3957">
        <path id="Path_3297" data-name="Path 3297" d="M101.821,47.916A102.851,102.851,0,0,1,82.3,39.989a1.066,1.066,0,0,0-1,0,101.639,101.639,0,0,1-19.525,7.929A1.066,1.066,0,0,0,61,48.942v8.926a29.647,29.647,0,0,0,2.347,11.754,29.974,29.974,0,0,0,6.869,9.8A33.652,33.652,0,0,0,77.4,84.7a19.3,19.3,0,0,0,4.2,1.751,1.061,1.061,0,0,0,.387,0,19.3,19.3,0,0,0,4.2-1.751,33.655,33.655,0,0,0,7.184-5.27,29.972,29.972,0,0,0,6.869-9.8,29.641,29.641,0,0,0,2.347-11.755V48.94A1.067,1.067,0,0,0,101.821,47.916Zm-1.364,9.953A26.838,26.838,0,0,1,91.9,77.889a31.491,31.491,0,0,1-6.721,4.932,18.938,18.938,0,0,1-3.38,1.486,18.914,18.914,0,0,1-3.38-1.486,31.485,31.485,0,0,1-6.722-4.932,26.838,26.838,0,0,1-8.561-20.02V49.741a103.817,103.817,0,0,0,18.665-7.6,105.019,105.019,0,0,0,18.661,7.6Z" transform="translate(-60.998 -39.864)" fill="#117a8c"/>
      </g>
    </g>
    <g id="Group_3960" data-name="Group 3960" transform="translate(13.804 37.841)">
      <g id="Group_3959" data-name="Group 3959">
        <path id="Path_3298" data-name="Path 3298" d="M157.317,355.2l-.026-.028a1.066,1.066,0,1,0-1.566,1.448l.013.014a1.066,1.066,0,0,0,1.578-1.435Z" transform="translate(-155.441 -354.831)" fill="#117a8c"/>
      </g>
    </g>
    <g id="Group_3962" data-name="Group 3962" transform="translate(15.978 40.003)">
      <g id="Group_3961" data-name="Group 3961">
        <path id="Path_3299" data-name="Path 3299" d="M181.279,378.153a27.773,27.773,0,0,1-3.676-2.777,1.066,1.066,0,0,0-1.422,1.59,29.914,29.914,0,0,0,3.96,2.991,1.067,1.067,0,0,0,1.138-1.8Z" transform="translate(-175.825 -375.104)" fill="#117a8c"/>
      </g>
    </g>
    <g id="Group_3964" data-name="Group 3964" transform="translate(14.214 17.729)">
      <g id="Group_3963" data-name="Group 3963">
        <path id="Path_3300" data-name="Path 3300" d="M178.933,167.219a3.345,3.345,0,0,0-4.721,0l-6.776,6.776-2.459-2.459a3.338,3.338,0,0,0-4.721,4.721l4.819,4.819a3.345,3.345,0,0,0,4.721,0l9.136-9.136a3.345,3.345,0,0,0,0-4.721Zm-1.508,3.213-9.136,9.136a1.212,1.212,0,0,1-1.7,0l-4.819-4.819a1.205,1.205,0,0,1,1.7-1.7l3.213,3.213a1.066,1.066,0,0,0,1.508,0l7.53-7.53a1.205,1.205,0,0,1,1.7,1.7Z" transform="translate(-159.281 -166.244)" fill="#117a8c"/>
      </g>
    </g>
  </g>
</svg>
