<svg id="Group_294" data-name="Group 294" xmlns="http://www.w3.org/2000/svg" width="24.664" height="36.337" viewBox="0 0 24.664 36.337">
  <g id="Group_292" data-name="Group 292">
    <path id="Path_166" data-name="Path 166" d="M91.289,0A12.346,12.346,0,0,0,78.957,12.332c0,2.733,1.609,6.888,5.063,13.078,2.357,4.224,4.7,7.791,4.8,7.941l1.7,2.57a.924.924,0,0,0,1.543,0l1.7-2.57c.1-.149,2.427-3.685,4.8-7.942,3.454-6.19,5.063-10.345,5.063-13.078A12.346,12.346,0,0,0,91.289,0Zm5.656,24.51c-2.342,4.2-4.634,7.678-4.731,7.824l-.925,1.4-.924-1.4c-.1-.147-2.407-3.66-4.731-7.825-3.2-5.742-4.829-9.839-4.829-12.178a10.484,10.484,0,0,1,20.968,0C101.773,14.671,100.149,18.768,96.945,24.51Z" transform="translate(-78.957 0)" fill="#117a8c"/>
    <path id="Path_167" data-name="Path 167" d="M160.129,73.291a6.838,6.838,0,1,0,6.838,6.838A6.845,6.845,0,0,0,160.129,73.291Zm0,11.827a4.99,4.99,0,1,1,4.99-4.99A5,5,0,0,1,160.129,85.118Z" transform="translate(-147.796 -67.873)" fill="#117a8c"/>
  </g>
</svg>
