<svg xmlns="http://www.w3.org/2000/svg" width="30.289" height="30.289" viewBox="0 0 30.289 30.289">
  <g id="Group_4443" data-name="Group 4443" transform="translate(-1638.712 -932.099)">
    <path id="Path_3339" data-name="Path 3339" d="M163.039,115.27a3.895,3.895,0,1,0,3.9,3.9,3.9,3.9,0,0,0-3.9-3.9" transform="translate(1490.818 824.977)" fill="#117a8c"/>
    <path id="Path_3340" data-name="Path 3340" d="M15.146,0A15.145,15.145,0,1,0,30.29,15.145,15.162,15.162,0,0,0,15.146,0m3.439,20.958a30.866,30.866,0,0,1-2.305,2.934,8.9,8.9,0,0,1-1.134,1.145,8.907,8.907,0,0,1-1.134-1.145,30.882,30.882,0,0,1-2.305-2.934c-1.529-2.217-3.352-5.563-3.352-8.915a6.791,6.791,0,1,1,13.582,0c0,3.352-1.823,6.7-3.352,8.915" transform="translate(1638.711 932.099)" fill="#117a8c"/>
  </g>
</svg>
