<svg xmlns="http://www.w3.org/2000/svg" width="33.541" height="37.5" viewBox="0 0 33.541 37.5">
  <g id="Group_4467" data-name="Group 4467" transform="translate(-27.025)">
    <g id="Group_4278" data-name="Group 4278" transform="translate(27.025 21.313)">
      <g id="Group_4277" data-name="Group 4277" transform="translate(0)">
        <path id="Path_3322" data-name="Path 3322" d="M55.881,297.078a.732.732,0,0,0-.732.732v7.178a.733.733,0,0,1-.732.732H29.222a.733.733,0,0,1-.732-.732V291.731a.732.732,0,0,0-1.465,0v13.257a2.2,2.2,0,0,0,2.2,2.2H54.416a2.2,2.2,0,0,0,2.2-2.2v-7.178A.732.732,0,0,0,55.881,297.078Z" transform="translate(-27.025 -290.999)" fill="#117a8c"/>
      </g>
    </g>
    <g id="Group_4280" data-name="Group 4280" transform="translate(27.025)">
      <g id="Group_4279" data-name="Group 4279" transform="translate(0)">
        <path id="Path_3323" data-name="Path 3323" d="M58.756,13.707a6.154,6.154,0,0,0-2.143-1.394v-4.4h0a.731.731,0,0,0-.213-.518L49.222.215A.731.731,0,0,0,48.7,0V0H29.222a2.2,2.2,0,0,0-2.2,2.2V15.845a.732.732,0,1,0,1.465,0V2.2a.733.733,0,0,1,.732-.732H47.971v4.98a2.2,2.2,0,0,0,2.2,2.2h4.98v3.3A6.183,6.183,0,0,0,50,13.707L39.561,24.146A.732.732,0,0,0,40.6,25.182L51.036,14.743a4.726,4.726,0,1,1,6.684,6.684l-9.79,9.79a2.947,2.947,0,0,1-4.168-4.168L53.6,17.211a1.148,1.148,0,1,1,1.623,1.623L46.357,27.7a.732.732,0,0,0,1.036,1.036l8.866-8.866a2.613,2.613,0,1,0-3.695-3.7l-9.838,9.838a4.412,4.412,0,0,0,6.24,6.24l9.79-9.79A6.2,6.2,0,0,0,58.756,13.707Zm-8.587-6.53a.733.733,0,0,1-.732-.732V2.5l4.676,4.676Z" transform="translate(-27.025)" fill="#117a8c"/>
      </g>
    </g>
    <g id="Group_4282" data-name="Group 4282" transform="translate(27.025 18.253)">
      <g id="Group_4281" data-name="Group 4281" transform="translate(0)">
        <path id="Path_3324" data-name="Path 3324" d="M28.278,249.424a.732.732,0,1,0,.215.518A.738.738,0,0,0,28.278,249.424Z" transform="translate(-27.028 -249.209)" fill="#117a8c"/>
      </g>
    </g>
    <g id="Group_4284" data-name="Group 4284" transform="translate(37.001 26.135)">
      <g id="Group_4283" data-name="Group 4283" transform="translate(0)">
        <path id="Path_3325" data-name="Path 3325" d="M164.681,357.382l-.015-.045a.732.732,0,1,0-1.393.452l.014.045a.732.732,0,0,0,1.393-.452Z" transform="translate(-163.237 -356.831)" fill="#117a8c"/>
      </g>
    </g>
  </g>
</svg>
