<svg xmlns="http://www.w3.org/2000/svg" width="30.289" height="30.289" viewBox="0 0 30.289 30.289">
  <path id="Path_3342" data-name="Path 3342" d="M605.192,562.75a15.145,15.145,0,1,0,15.145,15.145,15.162,15.162,0,0,0-15.145-15.145m8.849,11.876a29.221,29.221,0,0,1-12.116,12.115,8.023,8.023,0,0,1-3.113.751h0a3.124,3.124,0,0,1-2.27-.821,5.667,5.667,0,0,1-.911-3.656,2.214,2.214,0,0,1,.659-1.148,7.99,7.99,0,0,1,4.106-1.894h.021a4.629,4.629,0,0,1,2.362,1.256,2.941,2.941,0,0,0,.44-.16,16.268,16.268,0,0,0,5.151-5.157,2.8,2.8,0,0,0,.156-.432,4.409,4.409,0,0,1-1.257-2.362,6.739,6.739,0,0,1,.7-2.308c.717-1.49,1.505-2.323,2.344-2.476a2.5,2.5,0,0,1,.447-.034,5.752,5.752,0,0,1,3.21.947c1.063,1.063,1.089,3.024.071,5.381" transform="translate(-590.047 -562.75)" fill="#117a8c"/>
</svg>
