<svg xmlns="http://www.w3.org/2000/svg" width="26.876" height="27.067" viewBox="0 0 26.876 27.067">
  <path id="Subtraction_1" data-name="Subtraction 1" d="M12.939,26.067h-.01a12.843,12.843,0,0,1-6.657-1.861L1.143,25.8a.5.5,0,0,1-.628-.616c0-.018.923-3.416,1.445-5.251A13.093,13.093,0,0,1,3.793,3.821a12.853,12.853,0,0,1,18.29,0,13.084,13.084,0,0,1,0,18.424A12.822,12.822,0,0,1,12.939,26.067ZM7.91,4.908a5.646,5.646,0,0,0-1.049.119.5.5,0,0,0-.255.137A6.557,6.557,0,0,0,5,11.713c1.481,3.865,5.271,8.357,10.093,9.086a10.487,10.487,0,0,0,1.545.124c.141.013.284.02.425.02A4.57,4.57,0,0,0,21.62,16.75c0-.041.007-.082.01-.124a.5.5,0,0,0-.24-.525c-.941-.527-1.741-1.055-2.27-1.4l-.093-.061a8.729,8.729,0,0,0-.9-.549,1.123,1.123,0,0,0-1.316.094.615.615,0,0,0-.063.077,7,7,0,0,1-1.81,2.033A11.926,11.926,0,0,1,11.883,14.3a6.638,6.638,0,0,1-2.421-3.081c.9-.928,1.228-1.522,1.228-2.193A14.232,14.232,0,0,0,8.8,5.164,1.249,1.249,0,0,0,7.91,4.908Z" transform="translate(0.5 0.5)" fill="none" stroke="#117a8c" stroke-miterlimit="10" stroke-width="1"/>
</svg>
