<svg xmlns="http://www.w3.org/2000/svg" width="156.356" height="110.755" viewBox="0 0 156.356 110.755">
  <g id="Group_3930" data-name="Group 3930" transform="translate(-96.748 -66.757)">
    <path id="Path_3258" data-name="Path 3258" d="M304.6,119.584V100.891a4.818,4.818,0,0,0-1.609-3.583,5.564,5.564,0,0,0-3.739-1.434,5.7,5.7,0,0,0-1.8.294l-35.166,11.71q-.478.159-.931.356h0l-.024.011-.026.011h0a10.939,10.939,0,0,0-1.116.576h0c-.29.17-.574.348-.843.541.032-.015.066-.026.1-.041a9.882,9.882,0,0,0-4.328,8.06v21.417a10.031,10.031,0,0,1,3.855,7.838v40.33h36.787a9.046,9.046,0,0,0,6.992-3.22A7.9,7.9,0,0,0,304.6,178.7l0-59.12Z" transform="translate(-51.497 -9.468)" fill="#117a8c"/>
    <path id="Path_3259" data-name="Path 3259" d="M239.967,202.245V161.986a9.054,9.054,0,0,0-7.195-8.651L202.328,143.17l-1.5-.354v59.429Z" transform="translate(-33.846 -24.733)" fill="#117a8c"/>
    <path id="Path_3260" data-name="Path 3260" d="M285.949,196.723c2.151-2.867,3.154-5.483,3.154-11.116v-8.5h-7.5v9.407a24.6,24.6,0,0,1-1.242,8.249Zm-14.822,10.413,16.239-.05c8.554,0,14.336-6.841,14.336-16.952V177.106h-7.5v13.38c0,6.086-2.962,10.462-7.454,10.462h-8.737L276.1,177.106H268.69Z" transform="translate(-55.912 -35.883)" fill="#fff"/>
    <path id="Path_3261" data-name="Path 3261" d="M212.563,206.747h12.329c6.164,0,10.8-4.476,10.8-10.462v-8.7c0-5.986-3.68-10.11-9.366-10.715l-8.553-.956c-3.632,3.018-6.547,7.294-6.547,11.62,0,5.785,3.919,9.1,9.366,9.306L221.738,191c-1.816-.4-3.345-1.459-3.393-3.773a6.469,6.469,0,0,1,2.342-4.828l4.014.553c2.341.4,3.392,2.112,3.392,4.929v7.294c0,2.665-1.768,5.382-4.874,5.382H212.563Z" transform="translate(-37.226 -35.495)" fill="#fff"/>
    <path id="Path_3262" data-name="Path 3262" d="M185.57,192.682V130.27c0-4.3-2.024-7.95-7.573-9.93l-19.946-6.93v13.523h0l0,65.75Z" transform="translate(-19.933 -15.171)" fill="#117a8c"/>
    <path id="Path_3263" data-name="Path 3263" d="M178.067,195.9c1.433-2.968,2.055-6.891,2.055-13.581v-5.533h-11.9v6.137h4.3v2.565a38.385,38.385,0,0,1-.812,9Z" transform="translate(-23.242 -35.779)" fill="#fff"/>
    <path id="Path_3264" data-name="Path 3264" d="M103.921,75.6c-.267.089-.526.192-.781.3-.049.02-.1.036-.15.057l-.017.007-.037.016c-.236.1-.46.225-.684.345-.074.04-.153.074-.227.114s-.138.078-.206.117a10.706,10.706,0,0,0-1.733,1.286,10.12,10.12,0,0,0-2.554,3.493,9.5,9.5,0,0,0-.785,3.78v84.108a8.58,8.58,0,0,0,8.848,8.283h31.171l0-67.4,0-38.341a5.2,5.2,0,0,0-5.348-5.018,5.7,5.7,0,0,0-1.8.294Z" transform="translate(0)" fill="#117a8c"/>
    <path id="Path_3265" data-name="Path 3265" d="M123.251,206.527h7.6V187.462c0-7.646-3.488-10.915-10.752-10.915h-9.6v6.137h9.175c2.485,0,3.584,1.509,3.584,3.823Z" transform="translate(-4.469 -35.702)" fill="#fff"/>
    <path id="Path_3266" data-name="Path 3266" d="M132.22,93.687c-.47,0-.769-.252-.769-.64s.343-.6.72-.775c.481.2.8.387.8.775s-.282.64-.753.64m.045-1.931c-.36-.148-.653-.3-.653-.652a.563.563,0,0,1,.615-.566.569.569,0,0,1,.609.572c0,.32-.244.48-.57.646m-.045,2.428c.842,0,1.389-.4,1.389-1.1A1.17,1.17,0,0,0,132.763,92a1.061,1.061,0,0,0,.68-.947c0-.547-.442-1.014-1.223-1.014A1.079,1.079,0,0,0,131,91.049a1.014,1.014,0,0,0,.68.965,1.23,1.23,0,0,0-.862,1.07c0,.7.559,1.1,1.4,1.1m-3.137-.534c-.437,0-.775-.351-.819-1.163a1.119,1.119,0,0,1,.825-.406c.52,0,.686.375.686.756a.727.727,0,0,1-.692.812m-.022.534a1.28,1.28,0,0,0,1.311-1.371,1.122,1.122,0,0,0-1.167-1.26,1.474,1.474,0,0,0-.935.411c.045-.885.382-1.365.919-1.365a.975.975,0,0,1,.719.283l.282-.485a1.445,1.445,0,0,0-1.029-.363c-.781,0-1.516.657-1.516,2.145,0,1.372.63,2,1.416,2m-3.3-2.047a.664.664,0,0,1-.687-.756.709.709,0,0,1,.692-.788c.437,0,.775.332.819,1.138a1.131,1.131,0,0,1-.825.406m-.078,2.047c.786,0,1.521-.657,1.521-2.145,0-1.365-.63-2-1.416-2a1.284,1.284,0,0,0-1.317,1.371,1.128,1.128,0,0,0,1.172,1.267,1.509,1.509,0,0,0,.936-.412c-.045.885-.382,1.377-.924,1.377a.99.99,0,0,1-.719-.283l-.277.467a1.44,1.44,0,0,0,1.024.362m-3.436-.086H124.1V93.54h-.581V90.1h-.591a.926.926,0,0,1-.675.252v.583a1.158,1.158,0,0,0,.653-.184V93.54h-.664Zm-4.279,0h2.415v-.546h-1.815V92.267h1.289v-.529h-1.289V90.617h1.756v-.563h-2.355ZM116,94.175a1.481,1.481,0,0,0,1.46-1.35l-.57-.142c-.123.514-.339.951-.885.951-.63,0-1.008-.656-1.008-1.574s.374-1.525.989-1.525c.516,0,.723.416.846.891l.571-.192a1.386,1.386,0,0,0-1.412-1.257c-.885,0-1.593.726-1.593,2.082,0,1.373.678,2.115,1.6,2.115m-5.036-.076h.55V91.142l1.816,2.956h.555V90.054h-.55V93l-1.776-2.946h-.595Zm-1.319,0h.6V90.055h-.6Zm-1.923.076c.93,0,1.377-.53,1.377-1.169,0-.831-.614-1.044-1.283-1.257-.536-.175-.807-.312-.807-.705,0-.295.226-.52.64-.52a1.092,1.092,0,0,1,.949.662l.418-.355a1.464,1.464,0,0,0-1.362-.853,1.106,1.106,0,0,0-1.234,1.12c0,.793.555.978,1.259,1.2.551.186.832.344.832.749,0,.383-.31.6-.763.6a1.1,1.1,0,0,1-1.062-.787l-.457.3a1.494,1.494,0,0,0,1.495,1.016" transform="translate(-3.083 -7.551)" fill="#fff"/>
  </g>
</svg>
