<svg xmlns="http://www.w3.org/2000/svg" xmlns:xlink="http://www.w3.org/1999/xlink" width="165" height="129" viewBox="0 0 165 129">
  <defs>
    <clipPath id="clip-path">
      <rect id="Rectangle_337" data-name="Rectangle 337" width="165" height="129" transform="translate(1612)" fill="#fff" stroke="#707070" stroke-width="1"/>
    </clipPath>
  </defs>
  <g id="Mask_Group_6" data-name="Mask Group 6" transform="translate(-1612)" clip-path="url(#clip-path)">
    <g id="Group_3949" data-name="Group 3949" transform="translate(37.18)">
      <path id="_5D3_7541" data-name="5D3_7541" d="M566-520.987,428.473-534.57a13.585,13.585,0,0,0-13.064,9.866,3.442,3.442,0,0,0-.519,1.821v134.759c0,7.5,4.5,12.556,13.583,13.583L566-360.959a13.585,13.585,0,0,0,13.063-9.866,3.44,3.44,0,0,0,.519-1.821V-507.4C579.578-514.906,575.077-519.961,566-520.987Z" transform="translate(1160.242 489.57)" fill="#fff"/>
      <g id="Group_3890" data-name="Group 3890" transform="translate(1497.445 -51.757)">
        <path id="Path_3258" data-name="Path 3258" d="M294.931,114.951V99.911a3.877,3.877,0,0,0-1.294-2.883,4.477,4.477,0,0,0-3.009-1.154,4.588,4.588,0,0,0-1.45.237l-28.3,9.422q-.384.128-.749.287h0l-.02.009-.021.009h0a8.8,8.8,0,0,0-.9.464h0c-.233.137-.462.28-.679.435.026-.012.053-.021.079-.033a7.951,7.951,0,0,0-3.483,6.485v17.233a8.071,8.071,0,0,1,3.1,6.307v32.45h29.6a7.279,7.279,0,0,0,5.626-2.591,6.36,6.36,0,0,0,1.493-4.068l0-47.569Z" transform="translate(-72.377 -13.307)" fill="#117a8c"/>
        <path id="Path_3259" data-name="Path 3259" d="M232.321,190.633V158.24a7.285,7.285,0,0,0-5.789-6.961l-24.5-8.179-1.2-.285v47.817Z" transform="translate(-47.57 -34.761)" fill="#117a8c"/>
        <path id="Path_3260" data-name="Path 3260" d="M282.576,192.89c1.73-2.307,2.538-4.412,2.538-8.944v-6.84h-6.037v7.569a19.789,19.789,0,0,1-1,6.637Zm-11.926,8.378,13.066-.04c6.883,0,11.535-5.5,11.535-13.64V177.106h-6.037v10.766c0,4.9-2.384,8.418-6,8.418h-7.03l-1.538-19.184h-5.96Z" transform="translate(-78.583 -50.433)" fill="#fff"/>
        <path id="Path_3261" data-name="Path 3261" d="M212.3,200.723h9.92a8.355,8.355,0,0,0,8.69-8.418v-7c0-4.816-2.961-8.135-7.536-8.621l-6.882-.769c-2.922,2.428-5.268,5.869-5.268,9.349,0,4.654,3.153,7.326,7.536,7.488l.923-4.7a3.052,3.052,0,0,1-2.73-3.036,5.205,5.205,0,0,1,1.884-3.885l3.23.445c1.884.324,2.73,1.7,2.73,3.966v5.869a4.073,4.073,0,0,1-3.922,4.33H212.3Z" transform="translate(-52.319 -49.888)" fill="#fff"/>
        <path id="Path_3262" data-name="Path 3262" d="M180.193,177.194V126.976c0-3.461-1.629-6.4-6.094-7.99L158.05,113.41v10.881h0l0,52.9Z" transform="translate(-28.015 -21.322)" fill="#117a8c"/>
        <path id="Path_3263" data-name="Path 3263" d="M176.143,192.166c1.153-2.388,1.653-5.545,1.653-10.928v-4.452h-9.574v4.938h3.46v2.064a30.886,30.886,0,0,1-.654,7.245Z" transform="translate(-32.666 -50.287)" fill="#fff"/>
        <path id="Path_3264" data-name="Path 3264" d="M102.52,73.876c-.215.072-.423.155-.629.241-.04.016-.081.029-.121.046l-.014.006-.03.013c-.19.084-.37.181-.55.277-.06.032-.123.059-.182.092l-.166.094a8.614,8.614,0,0,0-1.394,1.035,8.143,8.143,0,0,0-2.055,2.81,7.643,7.643,0,0,0-.632,3.042v67.675a6.9,6.9,0,0,0,7.119,6.665h25.081l0-54.228,0-30.849a4.184,4.184,0,0,0-4.3-4.038,4.586,4.586,0,0,0-1.45.237Z" transform="translate(0)" fill="#117a8c"/>
        <path id="Path_3265" data-name="Path 3265" d="M120.758,200.669h6.113V185.33c0-6.152-2.807-8.783-8.651-8.783h-7.728v4.938h7.382c2,0,2.884,1.214,2.884,3.076Z" transform="translate(-6.281 -50.177)" fill="#fff"/>
        <path id="Path_3266" data-name="Path 3266" d="M127.142,92.962c-.378,0-.619-.2-.619-.515s.276-.48.579-.623c.387.163.646.312.646.623s-.227.515-.606.515m.036-1.553c-.289-.119-.526-.243-.526-.525a.453.453,0,0,1,.495-.456.458.458,0,0,1,.49.46c0,.257-.2.386-.459.52m-.036,1.954c.677,0,1.117-.321,1.117-.885a.941.941,0,0,0-.681-.876.853.853,0,0,0,.547-.762c0-.44-.356-.816-.984-.816a.868.868,0,0,0-.979.816.816.816,0,0,0,.547.776.99.99,0,0,0-.694.861c0,.564.45.885,1.126.885m-2.524-.429c-.352,0-.624-.282-.659-.936a.9.9,0,0,1,.664-.327c.419,0,.552.3.552.609a.585.585,0,0,1-.557.654m-.018.429a1.03,1.03,0,0,0,1.055-1.1.9.9,0,0,0-.939-1.014,1.186,1.186,0,0,0-.753.331c.036-.712.307-1.1.74-1.1a.784.784,0,0,1,.579.228l.227-.39a1.163,1.163,0,0,0-.828-.292c-.628,0-1.22.529-1.22,1.726,0,1.1.507,1.613,1.14,1.613m-2.658-1.647a.534.534,0,0,1-.553-.609.571.571,0,0,1,.557-.634c.352,0,.623.267.659.916a.91.91,0,0,1-.664.326m-.062,1.647c.633,0,1.224-.529,1.224-1.726,0-1.1-.507-1.613-1.139-1.613a1.033,1.033,0,0,0-1.059,1.1.908.908,0,0,0,.943,1.019,1.214,1.214,0,0,0,.753-.331c-.036.712-.307,1.108-.744,1.108a.8.8,0,0,1-.579-.228l-.223.376a1.159,1.159,0,0,0,.824.292m-2.765-.069h1.5v-.45h-.467V90.078h-.476a.745.745,0,0,1-.543.2v.469a.932.932,0,0,0,.525-.148v2.242h-.534Zm-3.443,0h1.943v-.439h-1.461V91.82h1.037v-.426h-1.037v-.9h1.413v-.453h-1.895Zm-1.579.061a1.192,1.192,0,0,0,1.175-1.086l-.459-.114c-.1.413-.273.765-.712.765-.507,0-.811-.528-.811-1.267s.3-1.227.8-1.227c.415,0,.582.334.68.717l.459-.154a1.115,1.115,0,0,0-1.136-1.011c-.712,0-1.282.584-1.282,1.675s.546,1.7,1.29,1.7m-4.052-.061h.443V90.915l1.461,2.379h.446V90.039h-.443v2.37l-1.429-2.37h-.478Zm-1.061,0h.482V90.04h-.482Zm-1.547.061c.748,0,1.108-.426,1.108-.94,0-.668-.494-.84-1.032-1.012-.432-.141-.649-.251-.649-.567,0-.237.182-.418.515-.418a.878.878,0,0,1,.764.533l.336-.286a1.178,1.178,0,0,0-1.1-.686.89.89,0,0,0-.993.9c0,.638.447.787,1.013.968.444.149.669.277.669.6,0,.308-.25.479-.614.479a.888.888,0,0,1-.855-.633l-.368.242a1.2,1.2,0,0,0,1.2.817" transform="translate(-4.333 -10.613)" fill="#fff"/>
      </g>
    </g>
  </g>
</svg>
