<svg xmlns="http://www.w3.org/2000/svg" width="44.359" height="55.644" viewBox="0 0 44.359 55.644">
  <g id="Group_3967" data-name="Group 3967" transform="translate(0.376 0.38)">
    <g id="Group_3966" data-name="Group 3966" transform="translate(0 0)">
      <path id="Path_3301" data-name="Path 3301" d="M95.982,22.589a4.251,4.251,0,0,0-.49-5.284,2.656,2.656,0,0,1-.679-2.387,4.251,4.251,0,0,0-2.365-4.751,2.656,2.656,0,0,1-1.5-1.981A4.252,4.252,0,0,0,87.03,4.611,2.656,2.656,0,0,1,84.92,3.3a4.252,4.252,0,0,0-4.949-1.917,2.656,2.656,0,0,1-2.44-.456,4.252,4.252,0,0,0-5.307,0,2.656,2.656,0,0,1-2.44.456A4.252,4.252,0,0,0,64.836,3.3a2.656,2.656,0,0,1-2.11,1.307A4.252,4.252,0,0,0,58.8,8.186a2.656,2.656,0,0,1-1.5,1.981,4.252,4.252,0,0,0-2.366,4.751,2.656,2.656,0,0,1-.679,2.388,4.252,4.252,0,0,0-.49,5.284A2.656,2.656,0,0,1,54,25.061a4.252,4.252,0,0,0,1.452,5.1,2.656,2.656,0,0,1,1.106,2.222,4.252,4.252,0,0,0,3.2,4.235,2.655,2.655,0,0,1,1.42.927l-4.44,10.719a1.922,1.922,0,0,0,2.339,2.572l4.861-1.492a.311.311,0,0,1,.365.151l2.382,4.492a1.922,1.922,0,0,0,3.473-.165l4.628-11.172q.091,0,.182,0L79.6,53.828a1.922,1.922,0,0,0,3.473.165L85.452,49.5a.31.31,0,0,1,.365-.151l4.861,1.492a1.922,1.922,0,0,0,2.339-2.572L88.576,37.55A2.655,2.655,0,0,1,90,36.623a4.252,4.252,0,0,0,3.2-4.235A2.656,2.656,0,0,1,94.3,30.165a4.252,4.252,0,0,0,1.452-5.1,2.658,2.658,0,0,1,.229-2.472ZM68.67,53.211a.309.309,0,0,1-.56.027l-2.382-4.492a1.924,1.924,0,0,0-2.261-.937L58.6,49.3a.309.309,0,0,1-.377-.415l3.939-9.51a4.25,4.25,0,0,0,3.939,1.713,2.657,2.657,0,0,1,2.315.9A4.235,4.235,0,0,0,72.775,43.3ZM91.151,49.3,86.29,47.809a1.924,1.924,0,0,0-2.261.937l-2.382,4.492a.309.309,0,0,1-.56-.027l-4.1-9.908a4.249,4.249,0,0,0,4.354-1.318,2.655,2.655,0,0,1,2.315-.9,4.247,4.247,0,0,0,3.939-1.713l3.939,9.51a.31.31,0,0,1-.378.415Zm3.482-27.592a4.267,4.267,0,0,0-.368,3.97,2.647,2.647,0,0,1-.9,3.178,4.267,4.267,0,0,0-1.777,3.569,2.647,2.647,0,0,1-1.991,2.636,4.266,4.266,0,0,0-2.634,2.012l0,.008a4.267,4.267,0,0,0-.308.666,2.646,2.646,0,0,1-2.809,1.739,4.266,4.266,0,0,0-3.718,1.44,2.647,2.647,0,0,1-3.247.607,4.264,4.264,0,0,0-1.173-.413l-.01,0a4.263,4.263,0,0,0-1.624,0h-.006a4.27,4.27,0,0,0-1.175.414,2.647,2.647,0,0,1-3.247-.607,4.267,4.267,0,0,0-3.718-1.44,2.647,2.647,0,0,1-2.809-1.739,4.274,4.274,0,0,0-.307-.665l-.005-.01a4.266,4.266,0,0,0-2.634-2.011,2.647,2.647,0,0,1-1.991-2.636,4.267,4.267,0,0,0-1.777-3.569,2.647,2.647,0,0,1-.9-3.178,4.267,4.267,0,0,0-.368-3.97,2.647,2.647,0,0,1,.3-3.289,4.267,4.267,0,0,0,1.091-3.835,2.647,2.647,0,0,1,1.473-2.957,4.267,4.267,0,0,0,2.4-3.182,2.647,2.647,0,0,1,2.441-2.226,4.266,4.266,0,0,0,3.39-2.1,2.647,2.647,0,0,1,3.081-1.193,4.267,4.267,0,0,0,3.92-.733,2.647,2.647,0,0,1,3.3,0,4.266,4.266,0,0,0,3.92.733A2.647,2.647,0,0,1,83.53,4.119a4.267,4.267,0,0,0,3.39,2.1,2.647,2.647,0,0,1,2.441,2.226,4.267,4.267,0,0,0,2.4,3.182,2.647,2.647,0,0,1,1.473,2.957,4.266,4.266,0,0,0,1.091,3.835,2.647,2.647,0,0,1,.3,3.29Z" transform="translate(-53.074 -0.001)" fill="#117a8c" stroke="#117a8c" stroke-width="0.5"/>
      <path id="Path_3302" data-name="Path 3302" d="M108.074,67.527a.806.806,0,0,0,.9-.7,14.476,14.476,0,0,1,28.73.007.806.806,0,0,0,1.6-.2,16.087,16.087,0,0,0-31.929-.008.806.806,0,0,0,.7.9Z" transform="translate(-101.533 -46.883)" fill="#117a8c" stroke="#117a8c" stroke-width="0.5"/>
      <path id="Path_3303" data-name="Path 3303" d="M138.6,212.21a.807.807,0,0,0-.9.7,14.476,14.476,0,0,1-28.73.006.806.806,0,0,0-1.6.2,16.087,16.087,0,0,0,31.929-.007A.806.806,0,0,0,138.6,212.21Z" transform="translate(-101.531 -189.404)" fill="#117a8c" stroke="#117a8c" stroke-width="0.5"/>
      <path id="Path_3304" data-name="Path 3304" d="M172.209,102.608a1.545,1.545,0,0,0-1.427-1.077l-6.318-.227L162.3,95.366a1.56,1.56,0,0,0-2.93,0L157.2,101.3l-6.318.227a1.56,1.56,0,0,0-.906,2.787l4.978,3.9-1.737,6.079a1.56,1.56,0,0,0,2.371,1.722l5.245-3.53,5.245,3.53a1.56,1.56,0,0,0,2.371-1.722l-1.737-6.079,4.978-3.9a1.545,1.545,0,0,0,.522-1.71Zm-6.521,4.36a1.553,1.553,0,0,0-.538,1.657l1.707,5.976-5.156-3.47a1.553,1.553,0,0,0-1.742,0L154.8,114.6l1.707-5.976a1.554,1.554,0,0,0-.538-1.657l-4.894-3.831,6.211-.223a1.554,1.554,0,0,0,1.409-1.024l2.131-5.838,2.131,5.838a1.553,1.553,0,0,0,1.409,1.024l6.211.223Z" transform="translate(-139.027 -84.204)" fill="#117a8c" stroke="#117a8c" stroke-width="0.5"/>
    </g>
  </g>
</svg>
