<svg xmlns="http://www.w3.org/2000/svg" width="79.602" height="47.859" viewBox="0 0 79.602 47.859">
  <g id="Group_4646" data-name="Group 4646" transform="translate(-349.5 -612)">
    <path id="Path_3349" data-name="Path 3349" d="M569.089,711.206a11.92,11.92,0,0,1-5.022-1.33l-1.03,3.791a12.773,12.773,0,0,0,6.418,1.53c5.488,0,8.848-2.794,8.848-6.619a5.373,5.373,0,0,0-4.691-5.255v-.066c2.663-.931,3.959-2.727,3.959-5.022,0-2.96-2.563-5.388-7.183-5.388a13.552,13.552,0,0,0-6.687,1.63l1.03,3.659a9.879,9.879,0,0,1,4.526-1.3c2.129,0,3.191.965,3.191,2.261,0,1.83-2.161,2.461-3.859,2.495h-1.96v3.625h2.061c2.229,0,4.358.965,4.358,3.093C573.048,709.942,571.717,711.206,569.089,711.206Z" transform="translate(-200.156 -75.489)" fill="#117a8c" stroke="#fff" stroke-width="1"/>
    <path id="Path_3350" data-name="Path 3350" d="M872.331,715.972a7.741,7.741,0,0,0,7.981-7.815c0-4.49-3.053-7.059-6.681-7.059a6.1,6.1,0,0,0-4.6,1.739h-.09c.559-2.524,2.554-4.822,7.043-5.185a13.315,13.315,0,0,1,1.965-.075v-3.885a15.823,15.823,0,0,0-2.026.03,12.022,12.022,0,0,0-12.183,12.8C863.745,711.679,866.587,715.972,872.331,715.972Zm-3.356-9.341a3.3,3.3,0,0,1,2.994-1.935c2.161,0,3.219,1.738,3.219,3.719,0,2.207-1.119,3.839-2.918,3.839-2.3,0-3.4-2.071-3.492-4.369A2.836,2.836,0,0,1,868.975,706.631Z" transform="translate(-482.682 -76.264)" fill="#117a8c" stroke="#fff" stroke-width="1"/>
    <path id="Path_3351" data-name="Path 3351" d="M1178.339,715.105c5.517,0,8.207-4.6,8.207-11.276,0-5.925-2.267-11.08-8.041-11.08-5.593,0-8.253,4.958-8.253,11.216C1170.282,710.087,1172.746,715.105,1178.339,715.105Zm.09-18.532c2.026,0,3.069,2.539,3.069,7.316,0,4.927-1.073,7.391-3.038,7.391s-3.16-2.358-3.114-7.316C1175.3,698.947,1176.571,696.573,1178.429,696.573Z" transform="translate(-770.657 -75.397)" fill="#117a8c" stroke="#fff" stroke-width="1"/>
    <ellipse id="Ellipse_79" data-name="Ellipse 79" cx="3.204" cy="2.884" rx="3.204" ry="2.884" transform="translate(413.224 612.5)" fill="#117a8c" stroke="#fff" stroke-width="1"/>
    <path id="Path_3352" data-name="Path 3352" d="M1126.435,890.688a1.512,1.512,0,0,0-1.464,2.645c3.4,1.878,5.267,4.028,5.267,6.054,0,4.781-10.783,10.512-28.829,11.826a1.511,1.511,0,0,0,.108,3.019c.037,0,.073,0,.111,0,18.626-1.355,31.634-7.458,31.634-14.84C1133.26,897.141,1132.077,893.809,1126.435,890.688Z" transform="translate(-704.658 -261.19)" fill="#117a8c" stroke="#fff" stroke-width="1"/>
    <path id="Path_3353" data-name="Path 3353" d="M390.7,912.414a1.508,1.508,0,0,0-.328-.493l-6.044-6.045a1.511,1.511,0,0,0-2.137,2.138l3.4,3.4c-19.369-.685-32.562-6.643-32.562-12.025,0-2.025,1.87-4.176,5.267-6.054a1.512,1.512,0,1,0-1.464-2.645c-5.642,3.121-6.826,6.452-6.826,8.7,0,8.151,15.118,14.4,35.713,15.056l-3.526,3.526a1.511,1.511,0,1,0,2.137,2.137l6.044-6.044a1.516,1.516,0,0,0,.328-1.648Z" transform="translate(0 -261.19)" fill="#117a8c" stroke="#fff" stroke-width="1"/>
  </g>
</svg>
